<?xml version="1.0" standalone="no"?>
<!DOCTYPE svg PUBLIC "-//W3C//DTD SVG 20010904//EN"
 "http://www.w3.org/TR/2001/REC-SVG-20010904/DTD/svg10.dtd">
<svg version="1.0" xmlns="http://www.w3.org/2000/svg"
 width="640.000000pt" height="640.000000pt" viewBox="0 0 640.000000 640.000000"
 preserveAspectRatio="xMidYMid meet">
<metadata>
Created by potrace 1.14, written by Peter Selinger 2001-2017
</metadata>
<g transform="translate(0.000000,640.000000) scale(0.100000,-0.100000)"
fill="#000000" stroke="none">
<path d="M3023 4895 c-83 -23 -147 -60 -218 -126 -103 -97 -160 -233 -171
-409 -6 -105 2 -123 47 -97 36 20 45 17 54 -23 4 -16 21 -41 38 -54 66 -52 65
-50 72 -143 9 -122 10 -123 54 -123 27 0 44 -7 62 -26 l24 -26 -35 -28 c-25
-21 -50 -30 -94 -35 -141 -16 -280 -82 -345 -164 -57 -72 -75 -125 -77 -234
-2 -98 -2 -98 -43 -151 -22 -28 -50 -74 -62 -102 -29 -64 -36 -181 -15 -248 8
-27 13 -53 11 -57 -5 -7 -197 -1 -223 7 -8 2 -1 20 23 53 80 111 127 257 128
396 1 148 -51 282 -148 380 -86 88 -195 122 -334 104 -72 -9 -72 -8 -122 26
-58 40 -111 50 -216 42 -101 -8 -165 -40 -242 -122 -61 -66 -117 -166 -142
-255 -20 -70 -17 -244 5 -310 62 -185 185 -284 372 -297 79 -6 92 -9 119 -35
16 -16 53 -39 80 -52 70 -34 149 -121 251 -276 133 -204 180 -242 381 -311
193 -66 242 -65 323 8 98 88 170 211 285 488 32 77 62 144 66 149 9 10 89 -46
136 -96 29 -31 32 -41 47 -158 20 -161 20 -178 -4 -225 -11 -22 -20 -49 -20
-60 0 -12 -12 -32 -26 -46 -22 -20 -74 -107 -74 -124 0 -3 49 -5 109 -5 l110
0 -20 46 c-15 33 -19 56 -14 85 4 21 9 39 12 39 5 0 99 -73 156 -121 72 -61
25 17 -51 85 -56 50 -73 97 -83 226 -11 164 -16 250 -11 250 2 0 23 -19 48
-42 42 -39 97 -78 111 -78 4 0 -11 15 -33 34 -50 42 -97 109 -92 131 3 14 12
12 63 -14 32 -17 60 -29 62 -27 1 1 -22 27 -52 56 -60 59 -67 80 -32 103 21
14 20 15 -25 10 -26 -3 -59 -3 -73 1 -21 5 -26 12 -23 34 3 25 6 27 48 27 25
0 56 -4 70 -8 l25 -8 -25 21 c-20 18 -34 21 -78 18 -58 -3 -82 12 -69 46 9 22
32 20 123 -11 74 -25 91 -27 264 -28 205 -2 223 -6 246 -60 31 -74 12 -95
-104 -120 -93 -19 -175 -19 -212 0 -39 20 -38 3 1 -28 31 -24 31 -26 15 -48
-24 -35 -20 -42 12 -19 30 22 226 80 270 80 15 0 33 -4 40 -8 20 -13 33 -73
26 -120 -9 -57 -31 -72 -101 -65 -30 3 -86 0 -124 -7 -65 -12 -71 -12 -92 6
-12 11 -31 26 -42 34 -19 15 -19 14 -2 -10 9 -13 17 -40 17 -60 0 -54 17 -104
45 -130 27 -26 33 -17 10 14 -23 30 -19 83 6 96 50 27 217 24 255 -5 16 -11
19 -27 19 -87 0 -61 3 -73 18 -76 23 -5 33 24 20 58 -8 20 -7 36 3 59 24 57
174 108 191 64 6 -15 -2 -56 -22 -108 -5 -16 -3 -15 14 5 12 14 30 57 42 95
22 73 59 130 59 90 0 -33 -38 -266 -54 -335 -19 -80 -20 -89 -2 -65 12 17 14
16 26 -19 7 -21 10 -53 7 -72 l-6 -34 71 0 c60 0 69 2 64 16 -3 9 -6 23 -6 31
0 8 -19 32 -42 53 l-41 38 11 74 c6 40 14 141 17 223 8 169 17 220 73 390 22
66 43 133 47 149 l6 29 50 -49 c70 -68 73 -74 50 -132 -42 -107 -45 -254 -6
-365 29 -84 45 -179 45 -268 0 -101 -12 -124 -74 -137 -23 -4 -45 -17 -54 -30
l-14 -22 73 0 c41 0 79 4 86 8 33 21 43 80 43 254 0 95 4 179 9 186 4 8 21 13
37 12 16 -1 43 -1 59 -1 l30 2 -39 19 c-85 43 -110 85 -110 190 -1 89 22 162
69 224 l32 43 -46 -5 c-60 -5 -90 18 -132 104 -36 73 -48 149 -29 194 13 32
56 63 105 75 30 8 30 8 5 14 -13 4 -43 31 -66 61 -22 29 -50 57 -62 61 -27 10
-27 8 -2 -41 11 -22 20 -44 20 -50 0 -15 -37 -12 -70 5 -27 14 -44 5 -20 -10
19 -12 10 -62 -21 -108 -89 -135 -319 -253 -453 -233 -34 5 -59 17 -83 40 -33
30 -37 38 -43 107 -4 41 -12 87 -18 102 -7 16 -12 55 -12 88 0 40 -7 73 -20
99 -34 67 -22 141 36 217 41 55 9 37 -42 -22 -43 -51 -50 -55 -78 -50 -88 18
-84 19 -50 -3 17 -11 41 -33 53 -48 20 -26 22 -36 16 -89 -5 -52 -3 -68 19
-115 14 -30 26 -71 26 -90 0 -20 7 -62 15 -93 40 -152 10 -186 -175 -201 -92
-8 -212 6 -305 36 -76 25 -212 102 -229 131 -13 21 1 47 32 62 12 5 22 14 22
19 0 17 -82 -5 -150 -39 -38 -19 -84 -35 -103 -35 -52 0 -100 40 -112 93 -4
15 -10 27 -14 27 -11 0 -37 -23 -54 -48 l-15 -24 -12 22 c-19 36 -9 157 19
213 30 61 94 126 157 157 69 34 72 34 42 8 -35 -30 -98 -107 -98 -119 0 -5 14
6 30 25 66 75 201 136 301 136 51 0 66 13 27 24 -22 5 -22 7 14 43 l37 37 21
-27 c12 -15 39 -32 60 -38 l39 -12 -24 -29 c-31 -37 -32 -54 -1 -62 42 -10
221 60 259 101 17 19 16 21 -3 46 -23 30 -26 55 -6 63 21 8 53 -12 119 -73 51
-47 77 -63 77 -48 0 2 -20 44 -45 92 -25 48 -45 97 -45 108 0 12 11 36 25 55
14 19 25 47 25 66 0 53 21 58 63 15 32 -33 141 -101 162 -101 4 0 -20 20 -54
45 -63 46 -112 105 -137 164 -8 19 -13 35 -12 37 2 1 34 -25 73 -57 87 -74
148 -105 249 -124 88 -17 108 -28 104 -59 -2 -14 -26 -31 -80 -58 -43 -21 -78
-39 -78 -41 0 -2 30 5 68 14 77 21 179 24 251 8 28 -6 99 -35 157 -64 l106
-53 -34 35 c-18 19 -66 51 -107 71 -81 40 -80 49 3 32 220 -46 364 -252 301
-431 -12 -32 -13 -45 -4 -48 19 -6 53 -50 66 -84 6 -18 12 -78 12 -133 1 -80
4 -104 17 -115 68 -56 84 -243 39 -459 l-6 -25 11 24 c35 79 12 -72 -45 -299
-19 -74 -33 -136 -31 -137 1 -1 16 10 34 25 25 22 36 47 62 137 77 275 104
534 67 642 -10 28 -27 63 -38 77 -16 20 -21 44 -24 105 -3 85 -25 172 -58 236
-17 33 -21 54 -18 117 7 177 -74 307 -243 388 -45 21 -108 44 -140 50 -32 7
-87 27 -121 46 -79 44 -184 80 -295 103 -95 19 -123 36 -208 124 -42 43 -43
46 -57 148 -18 130 -57 243 -104 306 -45 59 -121 118 -181 139 -63 23 -222 28
-287 9z m182 -65 c-3 -5 -16 -10 -28 -11 -12 0 -38 -7 -57 -14 l-35 -14 55 5
c40 4 51 3 40 -5 -18 -13 -7 -13 45 -1 l40 9 -25 -20 -25 -21 28 6 c15 4 27 4
27 2 0 -2 -24 -24 -52 -48 -46 -37 -50 -39 -35 -15 l19 29 -24 -7 c-12 -4 -38
-16 -55 -27 -45 -27 -42 -7 4 25 21 15 32 27 25 27 -23 0 -84 -30 -136 -66
l-51 -35 52 50 c57 57 48 65 -29 26 -28 -14 -53 -24 -55 -21 -2 2 15 20 38 40
24 20 39 36 35 36 -15 0 -73 -34 -115 -68 -30 -25 -40 -29 -33 -15 28 52 130
118 205 133 62 12 149 12 142 0z m305 -350 c44 -44 52 -115 21 -167 -25 -40
-54 -50 -86 -29 -14 9 -25 15 -25 12 0 -2 9 -39 20 -82 24 -96 25 -133 4 -176
-17 -35 -119 -128 -139 -128 -7 0 -17 10 -23 23 -9 19 -11 17 -11 -24 -1 -36
-7 -51 -29 -72 -61 -58 -132 -57 -132 3 0 17 -4 30 -9 30 -5 0 -22 5 -38 11
l-28 11 50 23 50 22 -67 -5 c-38 -2 -68 -1 -68 4 0 5 16 20 35 33 29 20 39 22
65 13 44 -16 37 -2 -21 41 -54 39 -80 45 -98 24 -8 -11 -5 -13 18 -9 20 3 30
-1 34 -13 5 -12 -4 -21 -36 -35 -83 -38 -90 -33 -102 92 -6 54 -4 69 7 73 17
7 97 -26 139 -56 33 -23 39 -11 9 16 -27 24 -25 35 4 35 13 0 43 16 66 35 23
19 47 35 53 36 24 1 -49 28 -78 28 -16 1 -54 -10 -83 -24 -93 -43 -200 -26
-230 38 -22 45 -9 61 43 54 63 -9 92 5 156 74 67 72 93 75 124 17 17 -32 22
-36 51 -31 54 9 129 -41 173 -114 11 -17 12 -17 26 1 8 11 15 40 15 66 0 25 6
55 14 65 13 18 14 18 20 -3 9 -27 32 -29 39 -2 6 25 47 28 47 3 0 -9 -7 -25
-16 -35 -13 -14 -14 -21 -5 -32 16 -19 35 -11 50 20 15 34 14 65 -5 92 -17 25
-62 30 -70 7 -9 -23 -24 -18 -24 10 0 44 56 59 90 25z m-2240 -757 c-107 -117
-154 -234 -154 -388 -1 -117 22 -205 78 -297 37 -63 35 -78 -5 -26 -63 85 -86
142 -98 251 -18 156 14 288 95 396 37 49 115 121 132 121 2 0 -19 -25 -48 -57z
m327 -93 c-173 -187 -202 -467 -71 -685 l36 -60 -30 29 c-38 35 -86 125 -101
191 -7 28 -13 95 -12 150 0 166 50 284 164 387 73 66 80 60 14 -12z m358 -80
c49 -21 109 -86 137 -148 17 -37 22 -68 22 -142 1 -83 -2 -102 -25 -150 -36
-76 -100 -136 -167 -157 -99 -31 -192 5 -269 106 -43 55 -58 109 -58 206 0 67
5 90 28 140 70 149 195 204 332 145z m710 -331 c19 -17 38 -42 41 -55 9 -34
21 -30 28 11 4 19 11 35 17 35 16 0 57 -99 64 -155 8 -57 -7 -175 -31 -264
-14 -49 -20 -59 -31 -50 -10 9 -13 6 -13 -17 0 -52 -29 -167 -55 -219 -25 -51
-90 -135 -105 -135 -4 0 -13 14 -20 31 l-13 31 -15 -28 c-22 -43 -53 -75 -89
-90 -76 -32 -232 -5 -325 56 -25 17 -77 63 -114 103 l-69 72 80 6 c44 3 70 6
58 7 -53 5 -283 144 -283 172 0 4 22 10 50 12 27 3 79 19 114 37 65 32 66 32
98 14 23 -12 66 -19 143 -23 132 -6 194 -31 271 -110 26 -27 50 -48 52 -46 10
10 -62 127 -98 160 -38 34 -41 40 -27 53 14 14 19 13 47 -11 36 -30 103 -36
148 -12 62 33 142 153 142 216 0 21 -5 18 -34 -26 -89 -133 -202 -177 -268
-106 -39 42 -48 66 -48 132 0 76 16 116 65 159 86 75 163 89 220 40z m1544
-66 c-8 -21 -22 -39 -32 -41 -23 -5 -22 25 4 67 15 24 23 31 31 23 8 -8 7 -22
-3 -49z m-91 -47 c3 -11 -8 -30 -27 -47 -43 -39 -39 -51 9 -26 34 18 42 20 49
8 10 -16 4 -38 -16 -63 -12 -13 -12 -23 -3 -56 9 -29 9 -44 1 -60 -6 -11 -11
-46 -11 -78 0 -55 -2 -59 -48 -104 -41 -42 -54 -49 -102 -55 -30 -4 -73 -5
-95 -3 l-40 3 2 84 c3 112 6 115 113 109 82 -5 126 -18 142 -42 12 -17 10 12
-2 34 -7 13 -6 21 5 30 25 21 17 30 -12 14 -19 -9 -60 -14 -126 -14 -91 0
-100 2 -122 25 -31 30 -32 73 -4 131 18 39 25 44 72 54 29 6 79 26 112 45 65
37 98 41 103 11z m-1104 -9 c22 -22 66 -140 81 -216 l7 -35 -38 31 c-68 54
-131 136 -140 182 -5 22 -1 32 17 45 31 22 46 20 73 -7z"/>
<path d="M3276 4127 c-22 -32 -36 -64 -36 -82 l1 -30 16 30 c8 17 24 39 34 50
17 19 38 85 26 85 -2 0 -21 -24 -41 -53z"/>
<path d="M1846 3309 c-17 -20 -26 -42 -26 -65 0 -41 22 -89 45 -98 30 -11 72
-6 85 10 12 13 10 14 -14 3 -23 -11 -30 -10 -53 7 -38 28 -47 70 -25 114 15
31 22 35 55 35 39 0 48 9 21 19 -34 13 -63 5 -88 -25z"/>
<path d="M3983 2213 c-3 -10 -12 -33 -19 -50 -11 -28 -11 -33 1 -33 8 0 17 10
19 23 3 12 7 34 11 50 6 30 -2 37 -12 10z"/>
<path d="M3500 2165 c0 -15 18 -40 24 -34 3 3 -1 14 -9 25 -8 10 -14 15 -15 9z"/>
<path d="M4026 2145 c-3 -8 -1 -15 4 -15 6 0 10 7 10 15 0 8 -2 15 -4 15 -2 0
-6 -7 -10 -15z"/>
</g>
</svg>
